<mxfile host="app.diagrams.net" modified="2023-06-23T04:22:09.691Z" agent="Mozilla/5.0 (Windows NT 10.0; Win64; x64) AppleWebKit/537.36 (KHTML, like Gecko) Chrome/114.0.0.0 Safari/537.36" etag="J06kDhiRzsUSH8FkXXLB" version="21.5.0" type="github">
  <diagram id="C5RBs43oDa-KdzZeNtuy" name="Page-1">
    <mxGraphModel dx="1434" dy="796" grid="1" gridSize="10" guides="1" tooltips="1" connect="1" arrows="1" fold="1" page="1" pageScale="1" pageWidth="827" pageHeight="1169" math="0" shadow="0">
      <root>
        <mxCell id="WIyWlLk6GJQsqaUBKTNV-0" />
        <mxCell id="WIyWlLk6GJQsqaUBKTNV-1" parent="WIyWlLk6GJQsqaUBKTNV-0" />
        <mxCell id="F4DOY7Jb3V6N5yzFIiZ--0" value="Main loop" style="text;html=1;align=center;verticalAlign=middle;resizable=0;points=[];autosize=1;strokeColor=none;fillColor=none;fontSize=20;" parent="WIyWlLk6GJQsqaUBKTNV-1" vertex="1">
          <mxGeometry x="359" y="10" width="110" height="40" as="geometry" />
        </mxCell>
        <mxCell id="F4DOY7Jb3V6N5yzFIiZ--3" value="" style="edgeStyle=orthogonalEdgeStyle;rounded=0;orthogonalLoop=1;jettySize=auto;html=1;" parent="WIyWlLk6GJQsqaUBKTNV-1" source="F4DOY7Jb3V6N5yzFIiZ--1" target="F4DOY7Jb3V6N5yzFIiZ--2" edge="1">
          <mxGeometry relative="1" as="geometry" />
        </mxCell>
        <mxCell id="F4DOY7Jb3V6N5yzFIiZ--1" value="B" style="ellipse;whiteSpace=wrap;html=1;aspect=fixed;" parent="WIyWlLk6GJQsqaUBKTNV-1" vertex="1">
          <mxGeometry x="374" y="80" width="80" height="80" as="geometry" />
        </mxCell>
        <mxCell id="F4DOY7Jb3V6N5yzFIiZ--5" value="" style="edgeStyle=orthogonalEdgeStyle;rounded=0;orthogonalLoop=1;jettySize=auto;html=1;" parent="WIyWlLk6GJQsqaUBKTNV-1" source="F4DOY7Jb3V6N5yzFIiZ--2" target="F4DOY7Jb3V6N5yzFIiZ--4" edge="1">
          <mxGeometry relative="1" as="geometry" />
        </mxCell>
        <mxCell id="F4DOY7Jb3V6N5yzFIiZ--2" value="Check CAN data" style="whiteSpace=wrap;html=1;" parent="WIyWlLk6GJQsqaUBKTNV-1" vertex="1">
          <mxGeometry x="354" y="250" width="120" height="60" as="geometry" />
        </mxCell>
        <mxCell id="F4DOY7Jb3V6N5yzFIiZ--9" value="No" style="edgeStyle=orthogonalEdgeStyle;rounded=0;orthogonalLoop=1;jettySize=auto;html=1;fontSize=14;" parent="WIyWlLk6GJQsqaUBKTNV-1" source="F4DOY7Jb3V6N5yzFIiZ--4" target="F4DOY7Jb3V6N5yzFIiZ--8" edge="1">
          <mxGeometry relative="1" as="geometry" />
        </mxCell>
        <mxCell id="F4DOY7Jb3V6N5yzFIiZ--27" value="Yes" style="edgeStyle=orthogonalEdgeStyle;rounded=0;orthogonalLoop=1;jettySize=auto;html=1;fontSize=14;" parent="WIyWlLk6GJQsqaUBKTNV-1" source="F4DOY7Jb3V6N5yzFIiZ--4" target="F4DOY7Jb3V6N5yzFIiZ--26" edge="1">
          <mxGeometry relative="1" as="geometry" />
        </mxCell>
        <mxCell id="F4DOY7Jb3V6N5yzFIiZ--4" value="is can data received?" style="rhombus;whiteSpace=wrap;html=1;" parent="WIyWlLk6GJQsqaUBKTNV-1" vertex="1">
          <mxGeometry x="374" y="380" width="80" height="80" as="geometry" />
        </mxCell>
        <mxCell id="F4DOY7Jb3V6N5yzFIiZ--12" value="" style="edgeStyle=orthogonalEdgeStyle;rounded=0;orthogonalLoop=1;jettySize=auto;html=1;" parent="WIyWlLk6GJQsqaUBKTNV-1" source="F4DOY7Jb3V6N5yzFIiZ--8" target="F4DOY7Jb3V6N5yzFIiZ--11" edge="1">
          <mxGeometry relative="1" as="geometry" />
        </mxCell>
        <mxCell id="F4DOY7Jb3V6N5yzFIiZ--8" value="Read feedback input (vsat, bts, other)" style="whiteSpace=wrap;html=1;" parent="WIyWlLk6GJQsqaUBKTNV-1" vertex="1">
          <mxGeometry x="354" y="550" width="120" height="60" as="geometry" />
        </mxCell>
        <mxCell id="F4DOY7Jb3V6N5yzFIiZ--20" value="No" style="edgeStyle=orthogonalEdgeStyle;rounded=0;orthogonalLoop=1;jettySize=auto;html=1;entryX=0.5;entryY=0;entryDx=0;entryDy=0;fontSize=14;" parent="WIyWlLk6GJQsqaUBKTNV-1" source="F4DOY7Jb3V6N5yzFIiZ--11" target="F4DOY7Jb3V6N5yzFIiZ--15" edge="1">
          <mxGeometry x="-0.2344" relative="1" as="geometry">
            <Array as="points">
              <mxPoint x="560" y="720" />
              <mxPoint x="560" y="940" />
              <mxPoint x="414" y="940" />
            </Array>
            <mxPoint as="offset" />
          </mxGeometry>
        </mxCell>
        <mxCell id="F4DOY7Jb3V6N5yzFIiZ--22" value="" style="edgeStyle=orthogonalEdgeStyle;rounded=0;orthogonalLoop=1;jettySize=auto;html=1;" parent="WIyWlLk6GJQsqaUBKTNV-1" source="F4DOY7Jb3V6N5yzFIiZ--11" target="F4DOY7Jb3V6N5yzFIiZ--13" edge="1">
          <mxGeometry relative="1" as="geometry" />
        </mxCell>
        <mxCell id="F4DOY7Jb3V6N5yzFIiZ--11" value="is elapsed time &amp;gt; 1s?" style="rhombus;whiteSpace=wrap;html=1;" parent="WIyWlLk6GJQsqaUBKTNV-1" vertex="1">
          <mxGeometry x="374" y="680" width="80" height="80" as="geometry" />
        </mxCell>
        <mxCell id="F4DOY7Jb3V6N5yzFIiZ--16" value="" style="edgeStyle=orthogonalEdgeStyle;rounded=0;orthogonalLoop=1;jettySize=auto;html=1;" parent="WIyWlLk6GJQsqaUBKTNV-1" source="F4DOY7Jb3V6N5yzFIiZ--13" target="F4DOY7Jb3V6N5yzFIiZ--15" edge="1">
          <mxGeometry relative="1" as="geometry" />
        </mxCell>
        <mxCell id="F4DOY7Jb3V6N5yzFIiZ--13" value="Update elapsed time, take energy measurement, build the CAN data &amp;amp; pass it into can sender task" style="whiteSpace=wrap;html=1;" parent="WIyWlLk6GJQsqaUBKTNV-1" vertex="1">
          <mxGeometry x="319" y="840" width="190" height="70" as="geometry" />
        </mxCell>
        <mxCell id="F4DOY7Jb3V6N5yzFIiZ--18" value="Yes" style="edgeStyle=orthogonalEdgeStyle;rounded=0;orthogonalLoop=1;jettySize=auto;html=1;fontSize=14;" parent="WIyWlLk6GJQsqaUBKTNV-1" source="F4DOY7Jb3V6N5yzFIiZ--15" target="F4DOY7Jb3V6N5yzFIiZ--17" edge="1">
          <mxGeometry relative="1" as="geometry" />
        </mxCell>
        <mxCell id="F4DOY7Jb3V6N5yzFIiZ--21" value="No" style="edgeStyle=orthogonalEdgeStyle;rounded=0;orthogonalLoop=1;jettySize=auto;html=1;exitX=0;exitY=0.5;exitDx=0;exitDy=0;entryX=0.5;entryY=0;entryDx=0;entryDy=0;fontSize=14;" parent="WIyWlLk6GJQsqaUBKTNV-1" source="F4DOY7Jb3V6N5yzFIiZ--15" target="F4DOY7Jb3V6N5yzFIiZ--4" edge="1">
          <mxGeometry x="-0.9251" relative="1" as="geometry">
            <Array as="points">
              <mxPoint x="280" y="1020" />
              <mxPoint x="280" y="340" />
              <mxPoint x="414" y="340" />
            </Array>
            <mxPoint as="offset" />
          </mxGeometry>
        </mxCell>
        <mxCell id="F4DOY7Jb3V6N5yzFIiZ--15" value="is elapsed time &amp;gt; 5s?" style="rhombus;whiteSpace=wrap;html=1;" parent="WIyWlLk6GJQsqaUBKTNV-1" vertex="1">
          <mxGeometry x="374" y="980" width="80" height="80" as="geometry" />
        </mxCell>
        <mxCell id="F4DOY7Jb3V6N5yzFIiZ--19" style="edgeStyle=orthogonalEdgeStyle;rounded=0;orthogonalLoop=1;jettySize=auto;html=1;entryX=0.5;entryY=0;entryDx=0;entryDy=0;" parent="WIyWlLk6GJQsqaUBKTNV-1" source="F4DOY7Jb3V6N5yzFIiZ--17" target="F4DOY7Jb3V6N5yzFIiZ--4" edge="1">
          <mxGeometry relative="1" as="geometry">
            <Array as="points">
              <mxPoint x="280" y="1180" />
              <mxPoint x="280" y="340" />
              <mxPoint x="414" y="340" />
            </Array>
          </mxGeometry>
        </mxCell>
        <mxCell id="F4DOY7Jb3V6N5yzFIiZ--17" value="Do data cleanup" style="whiteSpace=wrap;html=1;" parent="WIyWlLk6GJQsqaUBKTNV-1" vertex="1">
          <mxGeometry x="354" y="1150" width="120" height="60" as="geometry" />
        </mxCell>
        <mxCell id="F4DOY7Jb3V6N5yzFIiZ--29" value="" style="edgeStyle=orthogonalEdgeStyle;rounded=0;orthogonalLoop=1;jettySize=auto;html=1;" parent="WIyWlLk6GJQsqaUBKTNV-1" source="F4DOY7Jb3V6N5yzFIiZ--26" target="F4DOY7Jb3V6N5yzFIiZ--28" edge="1">
          <mxGeometry relative="1" as="geometry" />
        </mxCell>
        <mxCell id="F4DOY7Jb3V6N5yzFIiZ--26" value="call canHandler callback" style="whiteSpace=wrap;html=1;" parent="WIyWlLk6GJQsqaUBKTNV-1" vertex="1">
          <mxGeometry x="514" y="390" width="120" height="60" as="geometry" />
        </mxCell>
        <mxCell id="F4DOY7Jb3V6N5yzFIiZ--30" style="edgeStyle=orthogonalEdgeStyle;rounded=0;orthogonalLoop=1;jettySize=auto;html=1;entryX=0.5;entryY=0;entryDx=0;entryDy=0;" parent="WIyWlLk6GJQsqaUBKTNV-1" source="F4DOY7Jb3V6N5yzFIiZ--28" target="F4DOY7Jb3V6N5yzFIiZ--8" edge="1">
          <mxGeometry relative="1" as="geometry">
            <Array as="points">
              <mxPoint x="774" y="480" />
              <mxPoint x="414" y="480" />
            </Array>
          </mxGeometry>
        </mxCell>
        <mxCell id="F4DOY7Jb3V6N5yzFIiZ--28" value="D" style="ellipse;whiteSpace=wrap;html=1;" parent="WIyWlLk6GJQsqaUBKTNV-1" vertex="1">
          <mxGeometry x="734" y="380" width="80" height="80" as="geometry" />
        </mxCell>
      </root>
    </mxGraphModel>
  </diagram>
</mxfile>
